<?xml version="1.0" standalone="no"?>
<!DOCTYPE svg PUBLIC "-//W3C//DTD SVG 20010904//EN"
 "http://www.w3.org/TR/2001/REC-SVG-20010904/DTD/svg10.dtd">
<svg version="1.0" xmlns="http://www.w3.org/2000/svg"
 width="512.000000pt" height="512.000000pt" viewBox="0 0 512.000000 512.000000"
 preserveAspectRatio="xMidYMid meet">

<g transform="translate(0.000000,512.000000) scale(0.100000,-0.100000)"
fill="#000000" stroke="none">
<path d="M1909 5092 c-39 -20 -62 -41 -84 -77 l-30 -48 -3 -214 -3 -213 -462
0 c-378 0 -473 -3 -520 -15 -167 -43 -287 -154 -350 -323 -20 -55 -21 -78 -25
-562 -2 -277 -1 -522 3 -545 4 -29 23 -61 66 -115 105 -131 159 -273 159 -420
0 -147 -54 -289 -159 -420 -46 -57 -62 -86 -67 -120 -11 -70 3 -378 20 -439
36 -129 104 -219 256 -336 77 -59 129 -125 175 -220 46 -95 65 -181 65 -301 0
-122 18 -187 68 -245 39 -45 120 -89 165 -89 l27 0 0 -108 c0 -96 3 -114 25
-159 26 -51 72 -91 128 -112 19 -8 401 -11 1200 -11 1117 0 1174 1 1212 19 99
46 128 99 135 251 l5 115 200 5 c225 7 264 16 367 89 89 65 143 140 184 261
18 52 19 99 19 961 l0 907 -48 58 c-231 286 -236 620 -13 899 58 73 69 111 45
157 -14 26 -68 48 -121 48 -174 0 -444 135 -572 285 -100 116 -140 205 -156
350 -8 71 -13 83 -40 108 l-30 27 -210 0 -209 0 -3 213 -3 214 -30 48 c-22 36
-45 57 -84 77 l-53 28 -598 0 -598 0 -53 -28z m1212 -172 c18 -10 19 -23 19
-195 l0 -185 -580 0 -580 0 0 185 c0 165 2 185 18 194 24 14 1096 15 1123 1z
m523 -644 c33 -145 120 -290 247 -411 117 -111 230 -179 397 -239 59 -21 88
-37 90 -49 2 -9 -10 -47 -27 -85 -52 -111 -72 -196 -78 -327 -10 -216 46 -398
174 -567 l43 -56 0 -861 c0 -842 0 -861 -20 -915 -25 -66 -85 -130 -148 -159
l-47 -22 -1542 -3 c-1490 -2 -1543 -2 -1561 16 -15 15 -20 41 -25 138 -17 315
-127 521 -384 716 -49 37 -68 60 -94 114 l-34 68 -3 177 -4 176 53 69 c114
151 170 317 170 504 0 187 -56 353 -169 503 l-52 68 0 488 c0 548 0 544 72
626 45 51 98 82 161 95 23 4 655 8 1403 9 l1362 1 16 -74z m76 -3976 c0 -78
-2 -91 -19 -100 -27 -14 -2255 -14 -2282 0 -17 9 -19 22 -19 100 l0 90 1160 0
1160 0 0 -90z"/>
<path d="M1643 3848 c-20 -9 -490 -746 -523 -820 -16 -34 -6 -73 25 -104 l24
-24 520 0 520 0 26 23 c15 13 28 37 32 59 5 34 -10 61 -252 448 -186 298 -264
414 -282 421 -31 12 -62 11 -90 -3z m203 -511 l151 -242 -300 -3 c-165 -1
-302 0 -305 2 -5 6 290 485 298 485 3 1 73 -108 156 -242z"/>
<path d="M3384 3850 c-14 -5 -118 -161 -275 -412 -227 -362 -253 -407 -253
-446 -1 -36 4 -48 27 -68 l28 -24 520 0 520 0 24 24 c31 31 41 70 25 104 -6
15 -122 203 -256 418 -171 273 -252 395 -270 403 -29 13 -60 13 -90 1z m200
-511 c82 -132 146 -242 144 -245 -3 -2 -140 -3 -305 -2 l-300 3 151 242 c83
134 153 243 156 242 3 0 72 -108 154 -240z"/>
<path d="M1622 2205 c-127 -39 -201 -148 -279 -410 -65 -219 -56 -329 40 -486
78 -127 255 -300 411 -401 91 -59 118 -55 208 30 142 133 225 190 343 238 63
26 82 29 190 29 129 0 174 -10 288 -66 83 -41 158 -93 271 -186 85 -71 104
-83 136 -83 96 0 394 256 504 433 99 160 109 271 41 497 -67 226 -142 348
-243 392 -64 29 -145 32 -307 14 -264 -30 -637 -41 -933 -28 -147 7 -323 19
-392 27 -153 18 -222 18 -278 0z m166 -322 l3 -143 -131 0 c-71 0 -130 2 -130
4 0 21 68 190 89 221 33 50 64 66 121 63 l45 -3 3 -142z m1662 134 c36 -18 74
-80 109 -180 17 -49 31 -90 31 -93 0 -2 -58 -4 -130 -4 l-130 0 0 138 c0 76 3
142 7 145 11 12 87 7 113 -6z m-1137 -33 l147 -7 0 -119 0 -118 -240 0 -240 0
0 131 0 132 93 -6 c50 -4 158 -10 240 -13z m827 -114 l0 -130 -240 0 -240 0 0
119 0 118 183 10 c100 5 208 10 240 11 l57 2 0 -130z m-1352 -523 l2 -199 -51
44 c-71 59 -176 183 -206 243 -30 58 -44 101 -35 110 3 3 69 4 146 3 l141 -3
3 -198z m672 130 l0 -74 -87 -21 c-103 -26 -204 -73 -314 -148 l-79 -54 0 185
0 185 240 0 240 0 0 -73z m680 -118 c0 -149 -3 -189 -12 -183 -7 4 -38 24 -68
44 -122 81 -238 134 -347 160 l-53 12 0 79 0 79 240 0 240 0 0 -191z m481 161
c-10 -72 -129 -235 -240 -328 l-51 -43 0 194 c0 106 3 197 7 201 4 3 70 5 147
4 l141 -3 -4 -25z"/>
</g>
</svg>
